# xmcd
#
# Track frame offsets: 
#        150
#        12630
#        25215
#        41455
#        57430
#        70070
#        81582
#        94697
#        114152
#        129745
#
# Disc length: 1996 seconds
#
# Revision: 4
# Processed by: cddbd v1.5.2PL0 Copyright (c) Steve Scherf et al.
# Submitted via: ExactAudioCopy v0.95a5
#
DISCID=8307ca0a
DTITLE=Crystal Gayle - Ain't Gonna Worry
DYEAR=1990
DGENRE=
TTITLE0=Everybody's Reaching Out For Someone
TTITLE1=It Ain't Gonna Worry My Mind
TTITLE2=Just An Old Love
TTITLE3=Just Like The Blues
TTITLE4=Whenever It Comes To You
TTITLE5=Never Ending Song Of Love
TTITLE6=Once In A Very Blue Moon
TTITLE7=More Than Love
TTITLE8=What He's Doing Now
TTITLE9=Faithless Love
EXTD=
EXTT0=
EXTT1=
EXTT2=
EXTT3=
EXTT4=
EXTT5=
EXTT6=
EXTT7=
EXTT8=
EXTT9=
PLAYORDER=
